<svg width="170" height="147" viewBox="0 0 170 147" fill="none" xmlns="http://www.w3.org/2000/svg">
<path d="M144.5 48.0005C150 41 169.5 2.00048 169.5 2.00048C169.5 2.00048 133.8 -2.39952 115 2.00048C96.2001 6.40048 100.167 22.5005 104.5 30.0005C122.9 10.8005 136 14.5005 144.5 14.5005C118.9 15.3005 107.137 32.9789 115 48.0005C121.27 59.9771 139 55.001 144.5 48.0005Z" fill="#4ca456"/>
<path fill-rule="evenodd" clip-rule="evenodd" d="M14.5 0H0C1.56755 0.653145 4.85514 2.73966 7.74429 6.50028L88.1168 145.97C88.5052 146.644 89.4806 146.636 89.8578 145.956L116.726 97.4978C116.896 97.1908 116.893 96.8169 116.717 96.5129L61.2887 0.50295C61.1101 0.193537 60.78 0.00292969 60.4227 0.00292969H14.5003L14.5 0Z" fill="#394141"/>
</svg>
